<?xml version="1.0" encoding="utf-8"?>
<!-- Generator: Adobe Illustrator 22.1.0, SVG Export Plug-In . SVG Version: 6.00 Build 0)  -->
<svg version="1.0" id="All_glyphs" xmlns="http://www.w3.org/2000/svg" xmlns:xlink="http://www.w3.org/1999/xlink" x="0px" y="0px"
	 width="6000px" height="4000px" viewBox="0 0 6000 4000" enable-background="new 0 0 6000 4000" xml:space="preserve">
<path fill="#FFFFFF" d="M4194.3,2000c0,668-534.8,1209.3-1194.3,1209.3c-659.7,0-1194.3-541.3-1194.3-1209.3
	c0-79.6,7.8-157.3,22.3-232.6h-803.1V3375c0,345.2,276.1,625,617.2,625h2715.9c340.7,0,617.2-279.8,617.2-625V1767.4H4172
	C4186.5,1842.7,4194.3,1920.4,4194.3,2000z M4357.9,0H1642.1c-341.1,0-617.2,279.9-617.2,625v677.3h999.9
	C2241,992.9,2597.1,790.7,3000,790.7c402.8,0,758.9,202.2,975.1,511.6h1000.1V625C4975.2,279.9,4698.7,0,4357.9,0z M4659.6,772.1
	c0,61.5-49.5,111.6-110.2,111.6h-330.8c-60.6,0-110.3-50.2-110.3-111.6V437.2c0-61.5,49.7-111.6,110.3-111.6h330.8
	c60.6,0,110.2,50.2,110.2,111.6V772.1z M3735,2000c0-411-329.1-744.2-735-744.2c-406,0-735,333.2-735,744.2s329,744.2,735,744.2
	C3405.9,2744.2,3735,2411,3735,2000z"/>
</svg>
