<?xml version="1.0" encoding="utf-8"?>
<!-- Generator: Adobe Illustrator 22.1.0, SVG Export Plug-In . SVG Version: 6.00 Build 0)  -->
<svg version="1.0" id="All_glyphs" xmlns="http://www.w3.org/2000/svg" xmlns:xlink="http://www.w3.org/1999/xlink" x="0px" y="0px"
	 width="6000px" height="4000px" viewBox="0 0 6000 4000" enable-background="new 0 0 6000 4000" xml:space="preserve">
<path d="M4329.9,2000c0,668-542.2,1209.3-1210.7,1209.3c-668.8,0-1210.7-541.3-1210.7-1209.3c0-79.6,7.9-157.3,22.6-232.6h-814.2
	V3375c0,345.2,279.9,625,625.7,625h2753.3c345.4,0,625.7-279.8,625.7-625V1767.4h-814.3C4322,1842.7,4329.9,1920.4,4329.9,2000z
	 M4495.8,0H1742.5c-345.8,0-625.7,279.9-625.7,625v677.3h1013.7c219.3-309.5,580.3-511.6,988.7-511.6
	c408.4,0,769.4,202.2,988.6,511.6h1013.8V625C5121.5,279.9,4841.2,0,4495.8,0z M4801.6,772.1c0,61.5-50.2,111.6-111.7,111.6h-335.3
	c-61.4,0-111.8-50.2-111.8-111.6V437.2c0-61.5,50.4-111.6,111.8-111.6h335.3c61.5,0,111.7,50.2,111.7,111.6V772.1z M3864.2,2000
	c0-411-333.6-744.2-745.1-744.2c-411.6,0-745.1,333.2-745.1,744.2s333.5,744.2,745.1,744.2C3530.6,2744.2,3864.2,2411,3864.2,2000z"
	/>
</svg>
