<?xml version="1.0" encoding="utf-8"?>
<!-- Generator: Adobe Illustrator 22.1.0, SVG Export Plug-In . SVG Version: 6.00 Build 0)  -->
<svg version="1.0" id="All_glyphs" xmlns="http://www.w3.org/2000/svg" xmlns:xlink="http://www.w3.org/1999/xlink" x="0px" y="0px"
	 width="6000px" height="4000px" viewBox="0 0 6000 4000" enable-background="new 0 0 6000 4000" xml:space="preserve">
<path fill="#FFFFFF" d="M5538.2,501.7c-169.4,78.9-351.4,132.1-542.4,156.1c195-122.7,344.7-316.9,415.3-548.3
	c-182.5,113.5-384.6,196-599.6,240.5c-172.3-192.7-417.7-313-689.2-313c-521.5,0-944.3,443.7-944.3,991.1
	c0,77.7,8.3,153.3,24.4,225.8C2417.7,1212.6,1721.7,818,1256.1,218.4c-81.3,146.4-127.9,316.6-127.9,498.3
	c0,343.8,166.7,647.1,420.1,824.9c-154.7-5.1-300.4-49.6-427.7-123.9c-0.1,4.1-0.1,8.2-0.1,12.4c0,480.2,325.6,880.8,757.4,971.8
	c-79.1,22.7-162.6,34.8-248.8,34.8c-60.8,0-119.9-6.2-177.6-17.8c120.2,393.7,469,680.3,882.1,688.3
	c-323.2,265.9-730.3,424.3-1172.7,424.3c-76.2,0-151.4-4.7-225.2-14c417.8,281.3,914.1,445.5,1447.5,445.5
	c1736.8,0,2686.6-1510.3,2686.6-2820.1c0-42.9-0.9-85.6-2.7-128.2C5251.5,875,5411.6,700.5,5538.2,501.7z"/>
</svg>
