<?xml version="1.0" encoding="utf-8"?>
<!-- Generator: Adobe Illustrator 22.1.0, SVG Export Plug-In . SVG Version: 6.00 Build 0)  -->
<svg version="1.0" id="All_glyphs" xmlns="http://www.w3.org/2000/svg" xmlns:xlink="http://www.w3.org/1999/xlink" x="0px" y="0px"
	 width="6000px" height="4000px" viewBox="0 0 6000 4000" enable-background="new 0 0 6000 4000" xml:space="preserve">
<path d="M5379.4,472.8c-166.5,80.2-345.3,134.4-533.1,158.8c191.7-124.8,338.8-322.4,408.1-557.9
	c-179.4,115.5-378,199.5-589.4,244.7C4495.8,122.4,4254.6,0,3987.7,0c-512.5,0-928.1,451.5-928.1,1008.4c0,79,8.2,156,24,229.8
	c-771.2-42-1455.3-443.5-1912.9-1053.6c-79.9,149-125.7,322.2-125.7,507c0,349.8,163.8,658.4,412.8,839.3
	c-152-5.2-295.2-50.5-420.3-126.1c-0.1,4.2-0.1,8.3-0.1,12.6c0,488.6,320,896.2,744.4,988.8c-77.8,23.1-159.8,35.4-244.5,35.4
	c-59.7,0-117.8-6.3-174.6-18.1c118.1,400.6,461,692.2,867,700.3c-317.7,270.5-717.7,431.7-1152.6,431.7
	c-74.9,0-148.8-4.8-221.4-14.2c410.6,286.2,898.4,453.2,1422.6,453.2c1707,0,2640.5-1536.7,2640.5-2869.3c0-43.6-0.9-87.1-2.7-130.5
	C5097.6,852.7,5254.9,675.1,5379.4,472.8z"/>
</svg>
