<?xml version="1.0" encoding="utf-8"?>
<!-- Generator: Adobe Illustrator 22.1.0, SVG Export Plug-In . SVG Version: 6.00 Build 0)  -->
<svg version="1.0" id="All_glyphs" xmlns="http://www.w3.org/2000/svg" xmlns:xlink="http://www.w3.org/1999/xlink" x="0px" y="0px"
	 width="6000px" height="4000px" viewBox="0 0 6000 4000" enable-background="new 0 0 6000 4000" xml:space="preserve">
<g>
	<path d="M198,374.4C360.7,464.9,2614.1,1717,2697.9,1763.6c83.9,46.6,192.6,69.1,302.1,69.1s218.2-22.5,302.1-69.1
		C3385.9,1717,5639.3,464.9,5802,374.4C5964.8,283.9,6118.9,0,5819.8,0H180.2C-118.8,0,35.2,283.9,198,374.4z M5871,1064
		c-184.9,99.8-2455.7,1328.2-2568.9,1389.2c-113.3,61.2-192.6,69.1-302.1,69.1s-188.8-7.9-302.1-69.1
		C2584.7,2392.2,314.1,1163.8,129,1064C-1.1,993.8,0,1076.1,0,1139.7c0,63.6,0,2529.6,0,2529.6C0,3813.8,186.1,4000,330.6,4000
		h5338.8c144.5,0,330.6-186.2,330.6-330.7c0,0,0-2466,0-2529.6C6000,1076.1,6001.2,993.8,5871,1064z"/>
</g>
</svg>
